<svg xmlns="http://www.w3.org/2000/svg" width="800" height="400" viewBox="0 0 800 400">
  <defs>
    <linearGradient id="sky" x1="0" y1="0" x2="0" y2="1">
      <stop offset="0" stop-color="#0E3A6B"/>
      <stop offset="1" stop-color="#4698DC"/>
    </linearGradient>
    <radialGradient id="sun" cx="0.75" cy="0.25" r="0.5">
      <stop offset="0" stop-color="#FFE9B3"/>
      <stop offset="1" stop-color="#F5C866" stop-opacity="0"/>
    </radialGradient>
  </defs>
  <rect width="800" height="400" fill="url(#sky)"/>
  <circle cx="580" cy="90" r="80" fill="url(#sun)"/>
  <path d="M0 320 L120 250 L220 300 L340 230 L460 290 L560 240 L680 300 L800 260 L800 400 L0 400 Z" fill="#122F4E"/>
  <path d="M0 350 L140 290 L280 340 L420 280 L560 340 L700 300 L800 340 L800 400 L0 400 Z" fill="#0B2440"/>
  <g fill="#F7FBFE">
    <rect x="340" y="150" width="120" height="110" rx="6"/>
    <polygon points="340,150 400,90 460,150"/>
    <rect x="352" y="205" width="30" height="55"/>
    <rect x="418" y="205" width="30" height="55"/>
  </g>
</svg>